<?xml version="1.0" encoding="utf-8" standalone="no"?>
<!DOCTYPE svg PUBLIC "-//W3C//DTD SVG 1.1//EN"
  "http://www.w3.org/Graphics/SVG/1.1/DTD/svg11.dtd">
<!-- Created with matplotlib (http://matplotlib.org/) -->
<svg height="412pt" version="1.1" viewBox="0 0 616 412" width="616pt" xmlns="http://www.w3.org/2000/svg" xmlns:xlink="http://www.w3.org/1999/xlink">
 <defs>
  <style type="text/css">
*{stroke-linecap:butt;stroke-linejoin:round;}
  </style>
 </defs>
 <g id="figure_1">
  <g id="patch_1">
   <path d="M 0 412.881971 
L 616.3875 412.881971 
L 616.3875 0 
L 0 0 
z
" style="fill:#101f2f;"/>
  </g>
  <g id="axes_1">
   <g id="patch_2">
    <path d="M 40.4875 360.62 
L 598.4875 360.62 
L 598.4875 17.9 
L 40.4875 17.9 
z
" style="fill:#101f2f;"/>
   </g>
   <g id="matplotlib.axis_1">
    <g id="xtick_1">
     <g id="line2d_1">
      <defs>
       <path d="M 0 0 
L 0 3.5 
" id="mc257b1f08b" style="stroke:#a0caf5;stroke-width:0.8;"/>
      </defs>
      <g>
       <use style="fill:#a0caf5;stroke:#a0caf5;stroke-width:0.8;" x="100.437913" xlink:href="#mc257b1f08b" y="360.62"/>
      </g>
     </g>
     <g id="text_1">
      <!-- 06-28 02 -->
      <defs>
       <path d="M 31.78125 66.40625 
Q 24.171875 66.40625 20.328125 58.90625 
Q 16.5 51.421875 16.5 36.375 
Q 16.5 21.390625 20.328125 13.890625 
Q 24.171875 6.390625 31.78125 6.390625 
Q 39.453125 6.390625 43.28125 13.890625 
Q 47.125 21.390625 47.125 36.375 
Q 47.125 51.421875 43.28125 58.90625 
Q 39.453125 66.40625 31.78125 66.40625 
z
M 31.78125 74.21875 
Q 44.046875 74.21875 50.515625 64.515625 
Q 56.984375 54.828125 56.984375 36.375 
Q 56.984375 17.96875 50.515625 8.265625 
Q 44.046875 -1.421875 31.78125 -1.421875 
Q 19.53125 -1.421875 13.0625 8.265625 
Q 6.59375 17.96875 6.59375 36.375 
Q 6.59375 54.828125 13.0625 64.515625 
Q 19.53125 74.21875 31.78125 74.21875 
z
" id="DejaVuSans-30"/>
       <path d="M 33.015625 40.375 
Q 26.375 40.375 22.484375 35.828125 
Q 18.609375 31.296875 18.609375 23.390625 
Q 18.609375 15.53125 22.484375 10.953125 
Q 26.375 6.390625 33.015625 6.390625 
Q 39.65625 6.390625 43.53125 10.953125 
Q 47.40625 15.53125 47.40625 23.390625 
Q 47.40625 31.296875 43.53125 35.828125 
Q 39.65625 40.375 33.015625 40.375 
z
M 52.59375 71.296875 
L 52.59375 62.3125 
Q 48.875 64.0625 45.09375 64.984375 
Q 41.3125 65.921875 37.59375 65.921875 
Q 27.828125 65.921875 22.671875 59.328125 
Q 17.53125 52.734375 16.796875 39.40625 
Q 19.671875 43.65625 24.015625 45.921875 
Q 28.375 48.1875 33.59375 48.1875 
Q 44.578125 48.1875 50.953125 41.515625 
Q 57.328125 34.859375 57.328125 23.390625 
Q 57.328125 12.15625 50.6875 5.359375 
Q 44.046875 -1.421875 33.015625 -1.421875 
Q 20.359375 -1.421875 13.671875 8.265625 
Q 6.984375 17.96875 6.984375 36.375 
Q 6.984375 53.65625 15.1875 63.9375 
Q 23.390625 74.21875 37.203125 74.21875 
Q 40.921875 74.21875 44.703125 73.484375 
Q 48.484375 72.75 52.59375 71.296875 
z
" id="DejaVuSans-36"/>
       <path d="M 4.890625 31.390625 
L 31.203125 31.390625 
L 31.203125 23.390625 
L 4.890625 23.390625 
z
" id="DejaVuSans-2d"/>
       <path d="M 19.1875 8.296875 
L 53.609375 8.296875 
L 53.609375 0 
L 7.328125 0 
L 7.328125 8.296875 
Q 12.9375 14.109375 22.625 23.890625 
Q 32.328125 33.6875 34.8125 36.53125 
Q 39.546875 41.84375 41.421875 45.53125 
Q 43.3125 49.21875 43.3125 52.78125 
Q 43.3125 58.59375 39.234375 62.25 
Q 35.15625 65.921875 28.609375 65.921875 
Q 23.96875 65.921875 18.8125 64.3125 
Q 13.671875 62.703125 7.8125 59.421875 
L 7.8125 69.390625 
Q 13.765625 71.78125 18.9375 73 
Q 24.125 74.21875 28.421875 74.21875 
Q 39.75 74.21875 46.484375 68.546875 
Q 53.21875 62.890625 53.21875 53.421875 
Q 53.21875 48.921875 51.53125 44.890625 
Q 49.859375 40.875 45.40625 35.40625 
Q 44.1875 33.984375 37.640625 27.21875 
Q 31.109375 20.453125 19.1875 8.296875 
z
" id="DejaVuSans-32"/>
       <path d="M 31.78125 34.625 
Q 24.75 34.625 20.71875 30.859375 
Q 16.703125 27.09375 16.703125 20.515625 
Q 16.703125 13.921875 20.71875 10.15625 
Q 24.75 6.390625 31.78125 6.390625 
Q 38.8125 6.390625 42.859375 10.171875 
Q 46.921875 13.96875 46.921875 20.515625 
Q 46.921875 27.09375 42.890625 30.859375 
Q 38.875 34.625 31.78125 34.625 
z
M 21.921875 38.8125 
Q 15.578125 40.375 12.03125 44.71875 
Q 8.5 49.078125 8.5 55.328125 
Q 8.5 64.0625 14.71875 69.140625 
Q 20.953125 74.21875 31.78125 74.21875 
Q 42.671875 74.21875 48.875 69.140625 
Q 55.078125 64.0625 55.078125 55.328125 
Q 55.078125 49.078125 51.53125 44.71875 
Q 48 40.375 41.703125 38.8125 
Q 48.828125 37.15625 52.796875 32.3125 
Q 56.78125 27.484375 56.78125 20.515625 
Q 56.78125 9.90625 50.3125 4.234375 
Q 43.84375 -1.421875 31.78125 -1.421875 
Q 19.734375 -1.421875 13.25 4.234375 
Q 6.78125 9.90625 6.78125 20.515625 
Q 6.78125 27.484375 10.78125 32.3125 
Q 14.796875 37.15625 21.921875 38.8125 
z
M 18.3125 54.390625 
Q 18.3125 48.734375 21.84375 45.5625 
Q 25.390625 42.390625 31.78125 42.390625 
Q 38.140625 42.390625 41.71875 45.5625 
Q 45.3125 48.734375 45.3125 54.390625 
Q 45.3125 60.0625 41.71875 63.234375 
Q 38.140625 66.40625 31.78125 66.40625 
Q 25.390625 66.40625 21.84375 63.234375 
Q 18.3125 60.0625 18.3125 54.390625 
z
" id="DejaVuSans-38"/>
       <path id="DejaVuSans-20"/>
      </defs>
      <g style="fill:#a0caf5;" transform="translate(60.460755 396.680909)rotate(-30)scale(0.1 -0.1)">
       <use xlink:href="#DejaVuSans-30"/>
       <use x="63.623047" xlink:href="#DejaVuSans-36"/>
       <use x="127.246094" xlink:href="#DejaVuSans-2d"/>
       <use x="163.330078" xlink:href="#DejaVuSans-32"/>
       <use x="226.953125" xlink:href="#DejaVuSans-38"/>
       <use x="290.576172" xlink:href="#DejaVuSans-20"/>
       <use x="322.363281" xlink:href="#DejaVuSans-30"/>
       <use x="385.986328" xlink:href="#DejaVuSans-32"/>
      </g>
     </g>
    </g>
    <g id="xtick_2">
     <g id="line2d_2">
      <g>
       <use style="fill:#a0caf5;stroke:#a0caf5;stroke-width:0.8;" x="169.611467" xlink:href="#mc257b1f08b" y="360.62"/>
      </g>
     </g>
     <g id="text_2">
      <!-- 06-28 14 -->
      <defs>
       <path d="M 12.40625 8.296875 
L 28.515625 8.296875 
L 28.515625 63.921875 
L 10.984375 60.40625 
L 10.984375 69.390625 
L 28.421875 72.90625 
L 38.28125 72.90625 
L 38.28125 8.296875 
L 54.390625 8.296875 
L 54.390625 0 
L 12.40625 0 
z
" id="DejaVuSans-31"/>
       <path d="M 37.796875 64.3125 
L 12.890625 25.390625 
L 37.796875 25.390625 
z
M 35.203125 72.90625 
L 47.609375 72.90625 
L 47.609375 25.390625 
L 58.015625 25.390625 
L 58.015625 17.1875 
L 47.609375 17.1875 
L 47.609375 0 
L 37.796875 0 
L 37.796875 17.1875 
L 4.890625 17.1875 
L 4.890625 26.703125 
z
" id="DejaVuSans-34"/>
      </defs>
      <g style="fill:#a0caf5;" transform="translate(129.634309 396.680909)rotate(-30)scale(0.1 -0.1)">
       <use xlink:href="#DejaVuSans-30"/>
       <use x="63.623047" xlink:href="#DejaVuSans-36"/>
       <use x="127.246094" xlink:href="#DejaVuSans-2d"/>
       <use x="163.330078" xlink:href="#DejaVuSans-32"/>
       <use x="226.953125" xlink:href="#DejaVuSans-38"/>
       <use x="290.576172" xlink:href="#DejaVuSans-20"/>
       <use x="322.363281" xlink:href="#DejaVuSans-31"/>
       <use x="385.986328" xlink:href="#DejaVuSans-34"/>
      </g>
     </g>
    </g>
    <g id="xtick_3">
     <g id="line2d_3">
      <g>
       <use style="fill:#a0caf5;stroke:#a0caf5;stroke-width:0.8;" x="238.785021" xlink:href="#mc257b1f08b" y="360.62"/>
      </g>
     </g>
     <g id="text_3">
      <!-- 06-29 02 -->
      <defs>
       <path d="M 10.984375 1.515625 
L 10.984375 10.5 
Q 14.703125 8.734375 18.5 7.8125 
Q 22.3125 6.890625 25.984375 6.890625 
Q 35.75 6.890625 40.890625 13.453125 
Q 46.046875 20.015625 46.78125 33.40625 
Q 43.953125 29.203125 39.59375 26.953125 
Q 35.25 24.703125 29.984375 24.703125 
Q 19.046875 24.703125 12.671875 31.3125 
Q 6.296875 37.9375 6.296875 49.421875 
Q 6.296875 60.640625 12.9375 67.421875 
Q 19.578125 74.21875 30.609375 74.21875 
Q 43.265625 74.21875 49.921875 64.515625 
Q 56.59375 54.828125 56.59375 36.375 
Q 56.59375 19.140625 48.40625 8.859375 
Q 40.234375 -1.421875 26.421875 -1.421875 
Q 22.703125 -1.421875 18.890625 -0.6875 
Q 15.09375 0.046875 10.984375 1.515625 
z
M 30.609375 32.421875 
Q 37.25 32.421875 41.125 36.953125 
Q 45.015625 41.5 45.015625 49.421875 
Q 45.015625 57.28125 41.125 61.84375 
Q 37.25 66.40625 30.609375 66.40625 
Q 23.96875 66.40625 20.09375 61.84375 
Q 16.21875 57.28125 16.21875 49.421875 
Q 16.21875 41.5 20.09375 36.953125 
Q 23.96875 32.421875 30.609375 32.421875 
z
" id="DejaVuSans-39"/>
      </defs>
      <g style="fill:#a0caf5;" transform="translate(198.807863 396.680909)rotate(-30)scale(0.1 -0.1)">
       <use xlink:href="#DejaVuSans-30"/>
       <use x="63.623047" xlink:href="#DejaVuSans-36"/>
       <use x="127.246094" xlink:href="#DejaVuSans-2d"/>
       <use x="163.330078" xlink:href="#DejaVuSans-32"/>
       <use x="226.953125" xlink:href="#DejaVuSans-39"/>
       <use x="290.576172" xlink:href="#DejaVuSans-20"/>
       <use x="322.363281" xlink:href="#DejaVuSans-30"/>
       <use x="385.986328" xlink:href="#DejaVuSans-32"/>
      </g>
     </g>
    </g>
    <g id="xtick_4">
     <g id="line2d_4">
      <g>
       <use style="fill:#a0caf5;stroke:#a0caf5;stroke-width:0.8;" x="307.958574" xlink:href="#mc257b1f08b" y="360.62"/>
      </g>
     </g>
     <g id="text_4">
      <!-- 06-29 14 -->
      <g style="fill:#a0caf5;" transform="translate(267.981417 396.680909)rotate(-30)scale(0.1 -0.1)">
       <use xlink:href="#DejaVuSans-30"/>
       <use x="63.623047" xlink:href="#DejaVuSans-36"/>
       <use x="127.246094" xlink:href="#DejaVuSans-2d"/>
       <use x="163.330078" xlink:href="#DejaVuSans-32"/>
       <use x="226.953125" xlink:href="#DejaVuSans-39"/>
       <use x="290.576172" xlink:href="#DejaVuSans-20"/>
       <use x="322.363281" xlink:href="#DejaVuSans-31"/>
       <use x="385.986328" xlink:href="#DejaVuSans-34"/>
      </g>
     </g>
    </g>
    <g id="xtick_5">
     <g id="line2d_5">
      <g>
       <use style="fill:#a0caf5;stroke:#a0caf5;stroke-width:0.8;" x="377.132128" xlink:href="#mc257b1f08b" y="360.62"/>
      </g>
     </g>
     <g id="text_5">
      <!-- 06-30 02 -->
      <defs>
       <path d="M 40.578125 39.3125 
Q 47.65625 37.796875 51.625 33 
Q 55.609375 28.21875 55.609375 21.1875 
Q 55.609375 10.40625 48.1875 4.484375 
Q 40.765625 -1.421875 27.09375 -1.421875 
Q 22.515625 -1.421875 17.65625 -0.515625 
Q 12.796875 0.390625 7.625 2.203125 
L 7.625 11.71875 
Q 11.71875 9.328125 16.59375 8.109375 
Q 21.484375 6.890625 26.8125 6.890625 
Q 36.078125 6.890625 40.9375 10.546875 
Q 45.796875 14.203125 45.796875 21.1875 
Q 45.796875 27.640625 41.28125 31.265625 
Q 36.765625 34.90625 28.71875 34.90625 
L 20.21875 34.90625 
L 20.21875 43.015625 
L 29.109375 43.015625 
Q 36.375 43.015625 40.234375 45.921875 
Q 44.09375 48.828125 44.09375 54.296875 
Q 44.09375 59.90625 40.109375 62.90625 
Q 36.140625 65.921875 28.71875 65.921875 
Q 24.65625 65.921875 20.015625 65.03125 
Q 15.375 64.15625 9.8125 62.3125 
L 9.8125 71.09375 
Q 15.4375 72.65625 20.34375 73.4375 
Q 25.25 74.21875 29.59375 74.21875 
Q 40.828125 74.21875 47.359375 69.109375 
Q 53.90625 64.015625 53.90625 55.328125 
Q 53.90625 49.265625 50.4375 45.09375 
Q 46.96875 40.921875 40.578125 39.3125 
z
" id="DejaVuSans-33"/>
      </defs>
      <g style="fill:#a0caf5;" transform="translate(337.15497 396.680909)rotate(-30)scale(0.1 -0.1)">
       <use xlink:href="#DejaVuSans-30"/>
       <use x="63.623047" xlink:href="#DejaVuSans-36"/>
       <use x="127.246094" xlink:href="#DejaVuSans-2d"/>
       <use x="163.330078" xlink:href="#DejaVuSans-33"/>
       <use x="226.953125" xlink:href="#DejaVuSans-30"/>
       <use x="290.576172" xlink:href="#DejaVuSans-20"/>
       <use x="322.363281" xlink:href="#DejaVuSans-30"/>
       <use x="385.986328" xlink:href="#DejaVuSans-32"/>
      </g>
     </g>
    </g>
    <g id="xtick_6">
     <g id="line2d_6">
      <g>
       <use style="fill:#a0caf5;stroke:#a0caf5;stroke-width:0.8;" x="446.305682" xlink:href="#mc257b1f08b" y="360.62"/>
      </g>
     </g>
     <g id="text_6">
      <!-- 06-30 14 -->
      <g style="fill:#a0caf5;" transform="translate(406.328524 396.680909)rotate(-30)scale(0.1 -0.1)">
       <use xlink:href="#DejaVuSans-30"/>
       <use x="63.623047" xlink:href="#DejaVuSans-36"/>
       <use x="127.246094" xlink:href="#DejaVuSans-2d"/>
       <use x="163.330078" xlink:href="#DejaVuSans-33"/>
       <use x="226.953125" xlink:href="#DejaVuSans-30"/>
       <use x="290.576172" xlink:href="#DejaVuSans-20"/>
       <use x="322.363281" xlink:href="#DejaVuSans-31"/>
       <use x="385.986328" xlink:href="#DejaVuSans-34"/>
      </g>
     </g>
    </g>
    <g id="xtick_7">
     <g id="line2d_7">
      <g>
       <use style="fill:#a0caf5;stroke:#a0caf5;stroke-width:0.8;" x="515.479236" xlink:href="#mc257b1f08b" y="360.62"/>
      </g>
     </g>
     <g id="text_7">
      <!-- 07-01 02 -->
      <defs>
       <path d="M 8.203125 72.90625 
L 55.078125 72.90625 
L 55.078125 68.703125 
L 28.609375 0 
L 18.3125 0 
L 43.21875 64.59375 
L 8.203125 64.59375 
z
" id="DejaVuSans-37"/>
      </defs>
      <g style="fill:#a0caf5;" transform="translate(475.502078 396.680909)rotate(-30)scale(0.1 -0.1)">
       <use xlink:href="#DejaVuSans-30"/>
       <use x="63.623047" xlink:href="#DejaVuSans-37"/>
       <use x="127.246094" xlink:href="#DejaVuSans-2d"/>
       <use x="163.330078" xlink:href="#DejaVuSans-30"/>
       <use x="226.953125" xlink:href="#DejaVuSans-31"/>
       <use x="290.576172" xlink:href="#DejaVuSans-20"/>
       <use x="322.363281" xlink:href="#DejaVuSans-30"/>
       <use x="385.986328" xlink:href="#DejaVuSans-32"/>
      </g>
     </g>
    </g>
    <g id="xtick_8">
     <g id="line2d_8">
      <g>
       <use style="fill:#a0caf5;stroke:#a0caf5;stroke-width:0.8;" x="584.652789" xlink:href="#mc257b1f08b" y="360.62"/>
      </g>
     </g>
     <g id="text_8">
      <!-- 07-01 14 -->
      <g style="fill:#a0caf5;" transform="translate(544.675631 396.680909)rotate(-30)scale(0.1 -0.1)">
       <use xlink:href="#DejaVuSans-30"/>
       <use x="63.623047" xlink:href="#DejaVuSans-37"/>
       <use x="127.246094" xlink:href="#DejaVuSans-2d"/>
       <use x="163.330078" xlink:href="#DejaVuSans-30"/>
       <use x="226.953125" xlink:href="#DejaVuSans-31"/>
       <use x="290.576172" xlink:href="#DejaVuSans-20"/>
       <use x="322.363281" xlink:href="#DejaVuSans-31"/>
       <use x="385.986328" xlink:href="#DejaVuSans-34"/>
      </g>
     </g>
    </g>
   </g>
   <g id="matplotlib.axis_2">
    <g id="ytick_1">
     <g id="line2d_9">
      <defs>
       <path d="M 0 0 
L -3.5 0 
" id="mc15fd96712" style="stroke:#a0caf5;stroke-width:0.8;"/>
      </defs>
      <g>
       <use style="fill:#a0caf5;stroke:#a0caf5;stroke-width:0.8;" x="40.4875" xlink:href="#mc15fd96712" y="348.126607"/>
      </g>
     </g>
     <g id="text_9">
      <!-- 0 -->
      <g style="fill:#a0caf5;" transform="translate(27.125 351.925825)scale(0.1 -0.1)">
       <use xlink:href="#DejaVuSans-30"/>
      </g>
     </g>
    </g>
    <g id="ytick_2">
     <g id="line2d_10">
      <g>
       <use style="fill:#a0caf5;stroke:#a0caf5;stroke-width:0.8;" x="40.4875" xlink:href="#mc15fd96712" y="286.430837"/>
      </g>
     </g>
     <g id="text_10">
      <!-- 20 -->
      <g style="fill:#a0caf5;" transform="translate(20.7625 290.230056)scale(0.1 -0.1)">
       <use xlink:href="#DejaVuSans-32"/>
       <use x="63.623047" xlink:href="#DejaVuSans-30"/>
      </g>
     </g>
    </g>
    <g id="ytick_3">
     <g id="line2d_11">
      <g>
       <use style="fill:#a0caf5;stroke:#a0caf5;stroke-width:0.8;" x="40.4875" xlink:href="#mc15fd96712" y="224.735068"/>
      </g>
     </g>
     <g id="text_11">
      <!-- 40 -->
      <g style="fill:#a0caf5;" transform="translate(20.7625 228.534286)scale(0.1 -0.1)">
       <use xlink:href="#DejaVuSans-34"/>
       <use x="63.623047" xlink:href="#DejaVuSans-30"/>
      </g>
     </g>
    </g>
    <g id="ytick_4">
     <g id="line2d_12">
      <g>
       <use style="fill:#a0caf5;stroke:#a0caf5;stroke-width:0.8;" x="40.4875" xlink:href="#mc15fd96712" y="163.039298"/>
      </g>
     </g>
     <g id="text_12">
      <!-- 60 -->
      <g style="fill:#a0caf5;" transform="translate(20.7625 166.838517)scale(0.1 -0.1)">
       <use xlink:href="#DejaVuSans-36"/>
       <use x="63.623047" xlink:href="#DejaVuSans-30"/>
      </g>
     </g>
    </g>
    <g id="ytick_5">
     <g id="line2d_13">
      <g>
       <use style="fill:#a0caf5;stroke:#a0caf5;stroke-width:0.8;" x="40.4875" xlink:href="#mc15fd96712" y="101.343528"/>
      </g>
     </g>
     <g id="text_13">
      <!-- 80 -->
      <g style="fill:#a0caf5;" transform="translate(20.7625 105.142747)scale(0.1 -0.1)">
       <use xlink:href="#DejaVuSans-38"/>
       <use x="63.623047" xlink:href="#DejaVuSans-30"/>
      </g>
     </g>
    </g>
    <g id="ytick_6">
     <g id="line2d_14">
      <g>
       <use style="fill:#a0caf5;stroke:#a0caf5;stroke-width:0.8;" x="40.4875" xlink:href="#mc15fd96712" y="39.647759"/>
      </g>
     </g>
     <g id="text_14">
      <!-- 100 -->
      <g style="fill:#a0caf5;" transform="translate(14.4 43.446978)scale(0.1 -0.1)">
       <use xlink:href="#DejaVuSans-31"/>
       <use x="63.623047" xlink:href="#DejaVuSans-30"/>
       <use x="127.246094" xlink:href="#DejaVuSans-30"/>
      </g>
     </g>
    </g>
   </g>
   <g id="line2d_15">
    <path clip-path="url(#p5973083126)" d="M 65.851136 317.278722 
L 71.615599 314.193933 
L 83.144525 341.95703 
L 88.908988 317.278722 
L 94.67345 138.36099 
L 100.437913 264.837318 
L 106.202376 255.582952 
L 111.966839 271.006895 
L 117.731302 255.582952 
L 123.495764 317.278722 
L 129.260227 70.495644 
L 135.02469 61.241278 
L 204.198244 237.074221 
L 209.962707 314.193933 
L 227.256095 332.702664 
L 238.785021 243.243798 
L 244.549483 274.091683 
L 313.723037 345.041818 
L 325.251963 292.600414 
L 331.016426 33.478182 
L 336.780888 153.784932 
L 359.83874 332.702664 
L 400.189979 311.109145 
L 475.127996 332.702664 
L 486.656921 314.193933 
L 492.421384 345.041818 
L 561.594938 341.95703 
L 567.359401 341.95703 
L 573.123864 301.854779 
" style="fill:none;stroke:#1f77b4;stroke-linecap:square;stroke-width:1.5;"/>
    <defs>
     <path d="M 0 3 
C 0.795609 3 1.55874 2.683901 2.12132 2.12132 
C 2.683901 1.55874 3 0.795609 3 0 
C 3 -0.795609 2.683901 -1.55874 2.12132 -2.12132 
C 1.55874 -2.683901 0.795609 -3 0 -3 
C -0.795609 -3 -1.55874 -2.683901 -2.12132 -2.12132 
C -2.683901 -1.55874 -3 -0.795609 -3 0 
C -3 0.795609 -2.683901 1.55874 -2.12132 2.12132 
C -1.55874 2.683901 -0.795609 3 0 3 
z
" id="m0dd079aaf2" style="stroke:#1f77b4;"/>
    </defs>
    <g clip-path="url(#p5973083126)">
     <use style="fill:#1f77b4;stroke:#1f77b4;" x="65.851136" xlink:href="#m0dd079aaf2" y="317.278722"/>
     <use style="fill:#1f77b4;stroke:#1f77b4;" x="71.615599" xlink:href="#m0dd079aaf2" y="314.193933"/>
     <use style="fill:#1f77b4;stroke:#1f77b4;" x="83.144525" xlink:href="#m0dd079aaf2" y="341.95703"/>
     <use style="fill:#1f77b4;stroke:#1f77b4;" x="88.908988" xlink:href="#m0dd079aaf2" y="317.278722"/>
     <use style="fill:#1f77b4;stroke:#1f77b4;" x="94.67345" xlink:href="#m0dd079aaf2" y="138.36099"/>
     <use style="fill:#1f77b4;stroke:#1f77b4;" x="100.437913" xlink:href="#m0dd079aaf2" y="264.837318"/>
     <use style="fill:#1f77b4;stroke:#1f77b4;" x="106.202376" xlink:href="#m0dd079aaf2" y="255.582952"/>
     <use style="fill:#1f77b4;stroke:#1f77b4;" x="111.966839" xlink:href="#m0dd079aaf2" y="271.006895"/>
     <use style="fill:#1f77b4;stroke:#1f77b4;" x="117.731302" xlink:href="#m0dd079aaf2" y="255.582952"/>
     <use style="fill:#1f77b4;stroke:#1f77b4;" x="123.495764" xlink:href="#m0dd079aaf2" y="317.278722"/>
     <use style="fill:#1f77b4;stroke:#1f77b4;" x="129.260227" xlink:href="#m0dd079aaf2" y="70.495644"/>
     <use style="fill:#1f77b4;stroke:#1f77b4;" x="135.02469" xlink:href="#m0dd079aaf2" y="61.241278"/>
     <use style="fill:#1f77b4;stroke:#1f77b4;" x="204.198244" xlink:href="#m0dd079aaf2" y="237.074221"/>
     <use style="fill:#1f77b4;stroke:#1f77b4;" x="209.962707" xlink:href="#m0dd079aaf2" y="314.193933"/>
     <use style="fill:#1f77b4;stroke:#1f77b4;" x="227.256095" xlink:href="#m0dd079aaf2" y="332.702664"/>
     <use style="fill:#1f77b4;stroke:#1f77b4;" x="238.785021" xlink:href="#m0dd079aaf2" y="243.243798"/>
     <use style="fill:#1f77b4;stroke:#1f77b4;" x="244.549483" xlink:href="#m0dd079aaf2" y="274.091683"/>
     <use style="fill:#1f77b4;stroke:#1f77b4;" x="313.723037" xlink:href="#m0dd079aaf2" y="345.041818"/>
     <use style="fill:#1f77b4;stroke:#1f77b4;" x="325.251963" xlink:href="#m0dd079aaf2" y="292.600414"/>
     <use style="fill:#1f77b4;stroke:#1f77b4;" x="331.016426" xlink:href="#m0dd079aaf2" y="33.478182"/>
     <use style="fill:#1f77b4;stroke:#1f77b4;" x="336.780888" xlink:href="#m0dd079aaf2" y="153.784932"/>
     <use style="fill:#1f77b4;stroke:#1f77b4;" x="359.83874" xlink:href="#m0dd079aaf2" y="332.702664"/>
     <use style="fill:#1f77b4;stroke:#1f77b4;" x="400.189979" xlink:href="#m0dd079aaf2" y="311.109145"/>
     <use style="fill:#1f77b4;stroke:#1f77b4;" x="475.127996" xlink:href="#m0dd079aaf2" y="332.702664"/>
     <use style="fill:#1f77b4;stroke:#1f77b4;" x="486.656921" xlink:href="#m0dd079aaf2" y="314.193933"/>
     <use style="fill:#1f77b4;stroke:#1f77b4;" x="492.421384" xlink:href="#m0dd079aaf2" y="345.041818"/>
     <use style="fill:#1f77b4;stroke:#1f77b4;" x="561.594938" xlink:href="#m0dd079aaf2" y="341.95703"/>
     <use style="fill:#1f77b4;stroke:#1f77b4;" x="567.359401" xlink:href="#m0dd079aaf2" y="341.95703"/>
     <use style="fill:#1f77b4;stroke:#1f77b4;" x="573.123864" xlink:href="#m0dd079aaf2" y="301.854779"/>
    </g>
   </g>
   <g id="patch_3">
    <path d="M 40.4875 360.62 
L 40.4875 17.9 
" style="fill:none;stroke:#a0caf5;stroke-linecap:square;stroke-linejoin:miter;stroke-width:0.8;"/>
   </g>
   <g id="patch_4">
    <path d="M 598.4875 360.62 
L 598.4875 17.9 
" style="fill:none;stroke:#a0caf5;stroke-linecap:square;stroke-linejoin:miter;stroke-width:0.8;"/>
   </g>
   <g id="patch_5">
    <path d="M 40.4875 360.62 
L 598.4875 360.62 
" style="fill:none;stroke:#a0caf5;stroke-linecap:square;stroke-linejoin:miter;stroke-width:0.8;"/>
   </g>
   <g id="patch_6">
    <path d="M 40.4875 17.9 
L 598.4875 17.9 
" style="fill:none;stroke:#a0caf5;stroke-linecap:square;stroke-linejoin:miter;stroke-width:0.8;"/>
   </g>
  </g>
 </g>
 <defs>
  <clipPath id="p5973083126">
   <rect height="342.72" width="558" x="40.4875" y="17.9"/>
  </clipPath>
 </defs>
</svg>
